<svg xmlns="http://www.w3.org/2000/svg" viewBox="0 0 538.7 541.58"><defs><style>.cls-1{fill:#fff200;}.cls-2{fill:#fbb040;}.cls-3{fill:#e6e7e8;}.cls-4{fill:#d1d3d4;}.cls-5{fill:#fff;}</style></defs><g id="Layer_2" data-name="Layer 2"><g id="Layer_1-2" data-name="Layer 1"><g id="Flames"><path class="cls-1" d="M533.81,208.69a16.77,16.77,0,0,0-23.89-.27L396,319.09a18.5,18.5,0,0,1-25.77-26.54l64.27-62.43a18.47,18.47,0,0,0-1.74-27.92,18.66,18.66,0,0,0-24.32,1.66l-75.54,73.36c-9.88,6.41-24.9,3.61-35.38-7.19-9.8-10.08-12.5-23.92-7.37-33.6L423.68,106.71A26.44,26.44,0,0,0,424,69c-10.45-10.76-27.34-11.3-37.91-1L275.91,175a20,20,0,0,1-27.84-28.72l76.44-74.23v0a23,23,0,0,0-32-33L46.4,278l32.05,33,0,0,27.87,28.69,0,0,37.59,38.7h0l41.14,42.36,25.77,26.54,25.78,26.54,23.69,24.39L533.61,232.81A17.06,17.06,0,0,0,533.81,208.69Z"/><polygon class="cls-2" points="50.58 282.33 46.4 278.02 293.96 41.01 294.8 42.26 50.58 282.33"/><polygon class="cls-2" points="260.29 498.25 256.11 493.95 531.91 231.46 532.77 232.02 260.29 498.25"/><path class="cls-2" d="M260.16,498.24a153.33,153.33,0,1,1-213.65-220"/><path id="Fire" class="cls-1" d="M255.63,493.58A146.88,146.88,0,0,1,51,282.84"/><path id="Fire-2" data-name="Fire" class="cls-1" d="M255.67,493.61A146.88,146.88,0,0,0,51,282.88"/><circle class="cls-2" cx="336.73" cy="10" r="10"/><circle class="cls-1" cx="336.73" cy="10" r="3"/><circle class="cls-1" cx="378.28" cy="12.01" r="5"/><circle class="cls-2" cx="378.31" cy="11.3" r="1.5"/><circle class="cls-1" cx="457.98" cy="181.5" r="11.5"/><circle class="cls-2" cx="458.69" cy="181.51" r="3"/><circle class="cls-2" cx="477.41" cy="158.44" r="3.5"/><circle class="cls-1" cx="477.42" cy="157.74" r="1"/><circle id="Moon" class="cls-3" cx="148.67" cy="393.37" r="124.99"/><path class="cls-4" d="M159.15,273.5A125,125,0,0,1,174.86,516,125,125,0,1,0,111.28,274.4,124.6,124.6,0,0,1,159.15,273.5Z"/><circle id="Moon-2" data-name="Moon" class="cls-4" cx="162.7" cy="304.47" r="10"/><circle id="Moon-3" data-name="Moon" class="cls-4" cx="166.13" cy="457.27" r="6"/><circle id="Moon-4" data-name="Moon" class="cls-4" cx="115.86" cy="364.61" r="25.5"/><path class="cls-4" d="M132,278a125,125,0,0,1,18.2,241.67,125,125,0,1,0-41.59-243.54A124.84,124.84,0,0,1,132,278Z"/><circle id="Moon-5" data-name="Moon" class="cls-3" cx="202.04" cy="370.82" r="38"/><circle id="Moon-6" data-name="Moon" class="cls-4" cx="201.33" cy="370.81" r="34.5"/><circle id="Moon-7" data-name="Moon" class="cls-4" cx="103.06" cy="466.25" r="25.5"/><circle id="Moon-8" data-name="Moon" class="cls-4" cx="129.74" cy="333.69" r="3"/><circle id="Moon-9" data-name="Moon" class="cls-4" cx="52.72" cy="377.83" r="15"/><path class="cls-5" d="M132.44,516.17a125,125,0,0,1-12.31-243.49A125,125,0,1,0,181.47,515,124.63,124.63,0,0,1,132.44,516.17Z"/><circle class="cls-1" cx="469.16" cy="53.53" r="2.75"/><circle class="cls-2" cx="469.17" cy="53.15" r="0.83"/><circle class="cls-1" cx="456.39" cy="13.54" r="2.75"/><circle class="cls-2" cx="456.41" cy="13.15" r="0.83"/><circle class="cls-2" cx="444.53" cy="41.85" r="4.65"/><circle class="cls-1" cx="444.54" cy="40.91" r="1.33"/></g></g></g></svg>